# xmcd
# 
# Track frame offsets:
#     150
#     17042
#     42885
#     57687
#     80992
#     101317
#     118010
#     133722
#     153740
#     171842
#     192407
# 
# Disc length: 2795
# 
# Revision: 0
# Processed by: cddbd v1.5.2PL0 Copyright (c) Steve Scherf et al.
# Submitted via: fre:ac v1.0.17
# 
DISCID=9b0ae90b
DTITLE=Jesse Hultberg - Jesse Hultberg
DYEAR=1994
DGENRE=Country
TTITLE0=My Friend Wants A Baby
TTITLE1=Our Open Eyes
TTITLE2=If I Can't Have You
TTITLE3=Am I Raquel Weltch Starring in Fantastic Voyage?
TTITLE4=The Priest Song
TTITLE5=Willows
TTITLE6=The Beast
TTITLE7=Last Night
TTITLE8=Constant Thing (I Was Raised A Straight Boy)
TTITLE9=Tip-Toeing
TTITLE10=Slipping Quicky into Oblivion
EXTD=
EXTT0=
EXTT1=
EXTT2=
EXTT3=
EXTT4=
EXTT5=
EXTT6=
EXTT7=
EXTT8=
EXTT9=
EXTT10=
PLAYORDER=
